<mxfile host="app.diagrams.net" modified="2023-05-19T15:32:31.124Z" agent="Mozilla/5.0 (Windows NT 10.0; Win64; x64) AppleWebKit/537.36 (KHTML, like Gecko) Chrome/113.0.0.0 Safari/537.36" version="21.3.2" etag="djg6A9IHAbvhQkqYF-vY" type="github">
  <diagram name="Page-1" id="-gkG34--KcfKuNWSyEZ-">
    <mxGraphModel>
      <root>
        <mxCell id="0" />
        <mxCell id="1" parent="0" />
      </root>
    </mxGraphModel>
  </diagram>
</mxfile>
